#!OML:ASF I:\Actors\actors\Patient Classification 1\Patient 1\Session 1\Subject1.ASF
:FULLY-SPECIFIED
:DEGREES
833
root 0.806616 17.6175 8.41683 4.0186 -0.883164 -9.53338
lowerback -3.64141 0.187296 8.26816
upperback -6.33244 0.227774 0.887197
thorax -4.55077 -0.241668 -3.70176
lowerneck -9.43989 -4.44804 -3.00787
upperneck 40.3007 -8.85037 6.34373
head 16.5693 -3.39431 1.87851
rclavicle 1.31198e-014 1.59028e-015
rhumerus -25.1682 73.284 -118.496
rradius 126.137
rwrist -7.75573
rhand -7.70449 -58.5179
rfingers 7.12502
rthumb 18.1932 -807.687
lclavicle 1.31198e-014 1.59028e-015
lhumerus -122.227 -100.804 213.624
lradius 103.935
lwrist 42.6639
lhand 34.5245 -6.0622
lfingers 7.12502
lthumb 57.7221 9.90594
rfemur -5.24779 18.1304 27.7602
rtibia 13.3892
rfoot -15.8007 -17.0823
rtoes -0.710868
lfemur 3.17978 -27.1017 -8.41842
ltibia 0.880229
lfoot -11.8244 35.1779
ltoes -5.65311
834
root 0.809108 17.6181 8.42527 4.0191 -0.776708 -9.59527
lowerback -3.61618 0.208286 8.47913
upperback -6.44493 0.260525 0.797184
thorax -4.68472 -0.245973 -3.91348
lowerneck -9.51726 -4.45285 -3.14628
upperneck 40.2398 -8.93964 6.6502
head 16.596 -3.41125 2.02197
rclavicle 7.55382e-015 -3.26007e-014
rhumerus -25.3237 73.2171 -118.74
rradius 126.054
rwrist -7.72774
rhand -7.84763 -58.4099
rfingers 7.12502
rthumb 18.0554 -807.592
lclavicle 7.55382e-015 -3.26007e-014
lhumerus -122.528 -100.621 213.825
lradius 103.998
lwrist 42.5986
lhand 34.4802 -5.85739
lfingers 7.12502
lthumb 57.6834 10.1447
rfemur -5.18236 18.1245 27.8371
rtibia 13.3365
rfoot -15.8771 -17.1171
rtoes -0.360311
lfemur 3.20689 -27.1739 -8.37665
ltibia 0.854114
lfoot -11.8962 35.1614
ltoes -5.59088
835
root 0.81143 17.6177 8.43244 3.99391 -0.686784 -9.61509
lowerback -3.46189 0.219921 8.65854
upperback -6.60156 0.296884 0.698738
thorax -4.93842 -0.254038 -4.11695
lowerneck -9.40363 -4.45862 -2.91948
upperneck 40.0552 -8.9291 6.50829
head 16.4405 -3.39778 1.91772
rclavicle -5.76476e-015 2.54444e-014
rhumerus -25.7915 73.1274 -119.299
rradius 125.991
rwrist -7.73118
rhand -8.11054 -58.5983
rfingers 7.12502
rthumb 17.8025 -807.803
lclavicle -5.76476e-015 2.54444e-014
lhumerus -123.294 -100.325 214.466
lradius 104.046
lwrist 42.399
lhand 34.4483 -5.75352
lfingers 7.12502
lthumb 57.6555 10.273
rfemur -5.09455 18.1327 27.8745
rtibia 13.2734
rfoot -15.8925 -17.1745
rtoes -0.277585
lfemur 3.24788 -27.2315 -8.38345
ltibia 0.838726
lfoot -11.9695 35.1147
ltoes -5.45709
836
root 0.813462 17.6172 8.43697 3.96747 -0.631009 -9.65137
lowerback -3.54952 0.221083 8.59397
upperback -6.54849 0.29097 0.818983
thorax -4.83141 -0.244364 -3.95458
lowerneck -9.69963 -4.47928 -3.00238
upperneck 40.0918 -8.87942 6.35987
head 16.5229 -3.39821 1.86867
rclavicle -1.39149e-015 1.82882e-014
rhumerus -25.5779 73.2841 -118.937
rradius 125.999
rwrist -7.84429
rhand -8.24477 -58.6808
rfingers 7.12502
rthumb 17.6733 -807.898
lclavicle -1.39149e-015 1.82882e-014
lhumerus -124.196 -100.398 215.508
lradius 104.033
lwrist 42.1173
lhand 34.4961 -5.92863
lfingers 7.12502
lthumb 57.6974 10.0612
rfemur -5.03525 18.1669 27.9298
rtibia 13.2372
rfoot -15.8911 -17.2663
rtoes -0.283143
lfemur 3.25036 -27.2002 -8.33226
ltibia 0.844214
lfoot -11.9415 35.0196
ltoes -5.52557
837
root 0.814631 17.618 8.44062 3.94751 -0.619005 -9.71161
lowerback -3.51022 0.250316 8.71553
upperback -6.51761 0.33254 0.833561
thorax -4.81715 -0.227508 -4.00756
lowerneck -10.2068 -4.48173 -3.02267
upperneck 40.2415 -8.89338 6.36484
head 16.7361 -3.38737 1.86369
rclavicle 1.13307e-014 -7.95139e-016
rhumerus -25.3397 73.3029 -118.673
rradius 126.016
rwrist -7.99528
rhand -8.40714 -58.6515
rfingers 7.12502
rthumb 17.5171 -807.882
lclavicle 1.13307e-014 -7.95139e-016
lhumerus -124.568 -100.433 215.902
lradius 104.025
lwrist 41.9736
lhand 34.6419 -6.10752
lfingers 7.12502
lthumb 57.8248 9.77009
rfemur -4.99251 18.2026 28.0123
rtibia 13.2354
rfoot -15.9042 -17.3226
rtoes -0.312482
lfemur 3.26157 -27.1123 -8.24308
ltibia 0.830116
lfoot -11.8885 34.9376
ltoes -5.53736
838
root 0.815325 17.6194 8.44409 3.96665 -0.617363 -9.74595
lowerback -3.39084 0.281247 8.86871
upperback -6.60246 0.389203 0.779531
thorax -4.97074 -0.21714 -4.1503
lowerneck -10.4962 -4.47836 -3.08154
upperneck 40.3606 -8.95472 6.53401
head 16.8991 -3.3881 1.93608
rclavicle -4.87022e-015 3.18055e-015
rhumerus -25.6803 73.2067 -119.077
rradius 126.006
rwrist -8.07864
rhand -8.58054 -58.6508
rfingers 7.12502
rthumb 17.3502 -807.896
lclavicle -4.87022e-015 3.18055e-015
lhumerus -125.209 -100.263 216.473
lradius 104.035
lwrist 41.907
lhand 34.5576 -6.06836
lfingers 7.12502
lthumb 57.7511 9.87428
rfemur -5.00505 18.2247 28.0524
rtibia 13.2603
rfoot -15.9429 -17.3362
rtoes -0.323125
lfemur 3.25456 -27.0843 -8.18732
ltibia 0.805089
lfoot -11.8213 34.9161
ltoes -5.56851
839
root 0.816186 17.6199 8.44656 3.99689 -0.609764 -9.74418
lowerback -3.20107 0.301454 8.98973
upperback -6.78148 0.444269 0.702159
thorax -5.26546 -0.216051 -4.30013
lowerneck -10.521 -4.48489 -3.06185
upperneck 40.4447 -9.01538 6.61474
head 16.9639 -3.39726 1.96014
rclavicle 5.96354e-016 3.18055e-014
rhumerus -26.4276 73.0255 -119.923
rradius 125.964
rwrist -8.07148
rhand -8.53817 -58.6086
rfingers 7.12502
rthumb 17.391 -807.851
lclavicle 5.96354e-016 3.18055e-014
lhumerus -126.505 -99.9343 217.648
lradius 104.066
lwrist 41.8432
lhand 34.3737 -6.07065
lfingers 7.12502
lthumb 57.5902 10.0128
rfemur -5.05282 18.2134 28.0374
rtibia 13.3035
rfoot -15.9869 -17.3193
rtoes -0.242879
lfemur 3.22166 -27.124 -8.18142
ltibia 0.817544
lfoot -11.7837 34.926
ltoes -5.67621
840
root 0.81687 17.6193 8.44848 3.99765 -0.626917 -9.71343
lowerback -3.23735 0.329039 9.00536
upperback -6.78556 0.476252 0.673918
thorax -5.24475 -0.201021 -4.33883
lowerneck -10.543 -4.49701 -2.91154
upperneck 40.3578 -9.01556 6.49315
head 16.9014 -3.39104 1.87534
rclavicle -3.18055e-015 1.98785e-014
rhumerus -26.3047 72.9581 -119.873
rradius 125.911
rwrist -8.10364
rhand -8.49548 -58.5597
rfingers 7.12502
rthumb 17.432 -807.798
lclavicle -3.18055e-015 1.98785e-014
lhumerus -127.086 -99.873 218.19
lradius 104.097
lwrist 41.8243
lhand 34.4143 -6.1129
lfingers 7.12502
lthumb 57.6258 9.9396
rfemur -5.07514 18.1929 27.9954
rtibia 13.3417
rfoot -15.9839 -17.285
rtoes -0.320424
lfemur 3.23252 -27.1562 -8.23533
ltibia 0.839276
lfoot -11.8675 34.9452
ltoes -5.50158
841
root 0.817389 17.6186 8.45043 3.97337 -0.662595 -9.68157
lowerback -2.92426 0.305015 9.05451
upperback -6.96768 0.487279 0.628125
thorax -5.61917 -0.221477 -4.41598
lowerneck -10.5125 -4.46466 -2.67944
upperneck 40.3962 -8.95974 6.3069
head 16.881 -3.35765 1.76118
rclavicle 1.49089e-015 -1.19271e-014
rhumerus -27.2106 72.8217 -120.914
rradius 125.867
rwrist -8.05991
rhand -8.53831 -58.545
rfingers 7.12502
rthumb 17.3908 -807.787
lclavicle 1.49089e-015 -1.19271e-014
lhumerus -128.674 -99.6552 219.638
lradius 104.126
lwrist 41.6651
lhand 34.543 -6.11436
lfingers 7.12502
lthumb 57.7383 9.83955
rfemur -5.05071 18.1959 27.9693
rtibia 13.3402
rfoot -15.953 -17.2842
rtoes -0.446229
lfemur 3.27387 -27.0925 -8.28935
ltibia 0.844803
lfoot -11.9224 34.9134
ltoes -5.35606
842
root 0.817804 17.6182 8.45103 3.94341 -0.683811 -9.64879
lowerback -2.89904 0.29323 9.01024
upperback -6.95331 0.473781 0.642562
thorax -5.61928 -0.224943 -4.37593
lowerneck -10.5169 -4.44957 -2.54523
upperneck 40.2937 -8.92073 6.20579
head 16.8054 -3.33629 1.69602
rclavicle 1.98785e-016 -2.38542e-015
rhumerus -27.2747 72.883 -121.018
rradius 125.892
rwrist -8.01243
rhand -8.51653 -58.6086
rfingers 7.12502
rthumb 17.4118 -807.849
lclavicle 1.98785e-016 -2.38542e-015
lhumerus -128.97 -99.6901 219.909
lradius 104.126
lwrist 41.475
lhand 34.5401 -6.1718
lfingers 7.12502
lthumb 57.7358 9.78433
rfemur -5.01855 18.1933 27.9421
rtibia 13.3413
rfoot -15.9518 -17.2866
rtoes -0.227602
lfemur 3.25464 -26.8894 -8.29512
ltibia 0.891666
lfoot -11.8364 34.7408
ltoes -5.69272
